<svg width="20" height="20" viewBox="0 0 20 20" fill="none" xmlns="http://www.w3.org/2000/svg">
<path id="Union" fill-rule="evenodd" clip-rule="evenodd" d="M0.925349 0C0.414293 0 0 0.583976 0 1.30435C0 2.02472 0.414293 2.60869 0.925349 2.60869L19.0747 2.6087C19.5857 2.6087 20 2.02472 20 1.30435C20 0.583977 19.5857 0 19.0747 0H0.925349ZM13.5718 9.56521C13.5718 10.2856 13.1378 10.8696 12.6024 10.8696H0.969419C0.434027 10.8696 6.37451e-06 10.2856 6.39685e-06 9.56521C6.41919e-06 8.84484 0.434028 8.26086 0.969419 8.26086H12.6024C13.1378 8.26086 13.5718 8.84484 13.5718 9.56521ZM0 18.6957C0 17.9753 0.43219 17.3913 0.965324 17.3913L7.67126 17.3913C8.20439 17.3913 8.63658 17.9753 8.63658 18.6957C8.63658 19.416 8.20439 20 7.67126 20L0.965324 20C0.432191 20 0 19.416 0 18.6957Z" fill="#FDFDFD" fill-opacity="0.8"/>
</svg>
